<svg xmlns="http://www.w3.org/2000/svg" width="48.058" height="48.037" viewBox="0 0 48.058 48.037">
  <g id="behance" transform="translate(0.03 -0.769)">
    <path id="Trazado_53" data-name="Trazado 53" d="M134.664,264.712H99.287a1.817,1.817,0,0,0-.264-.083,6.849,6.849,0,0,1-5.359-4.033A15.4,15.4,0,0,1,93,258.427V222.962a2.116,2.116,0,0,0,.083-.262,7.035,7.035,0,0,1,7.186-6.023h33.394a8.451,8.451,0,0,1,1.7.169,7.067,7.067,0,0,1,5.675,7.077v28.886c0,1.579.023,3.158,0,4.736a6.883,6.883,0,0,1-4.195,6.5A14.125,14.125,0,0,1,134.664,264.712Zm-33.087-33.869v19.686c2.983,0,5.943.128,8.885-.033a5.536,5.536,0,0,0,4.658-7.82,16.452,16.452,0,0,0-1.361-2.1c-.013.1-.016.085-.008.075.083-.092.17-.182.255-.273a5.383,5.383,0,0,0,1.311-5.673,5.242,5.242,0,0,0-4.484-3.76,32.488,32.488,0,0,0-3.977-.1C105.1,230.833,103.353,230.843,101.577,230.843Zm19.908,14.049H132.48c.511-5.287-3.04-8.012-6.192-8.373a7.038,7.038,0,0,0-2.9,13.713,6.929,6.929,0,0,0,8.113-3.238l-2.332-1.347c-1.692,1.838-2.956,2.381-4.645,1.967A4.205,4.205,0,0,1,121.485,244.892Zm-1.637-11.274H131.07v-2.74H119.849Z" transform="translate(-93.026 -215.906)" fill="#cad1ce"/>
    <path id="Trazado_54" data-name="Trazado 54" d="M141.014,252.8V223.912a7.177,7.177,0,0,0-2.251-5.328c-.905-.846-4.568-1.924-5.13-1.917q-16.7-.012-33.394,0a7.018,7.018,0,0,0-7.186,6.023,2.116,2.116,0,0,1-.083.262,7.886,7.886,0,0,1,2.577-4.7,7.114,7.114,0,0,1,4.693-1.581h33.394s1.05.26,2.462.637a12.991,12.991,0,0,1,1.307.493l1.36.787a7.122,7.122,0,0,1,2.251,5.328C141,231.732,141.014,254.155,141.014,252.8Z" transform="translate(-93 -215.89)" fill="#cad1ce"/>
    <path id="Trazado_56" data-name="Trazado 56" d="M189.81,366.75v-5.585a.726.726,0,0,1,.169-.041c1.812,0,3.624-.032,5.436,0a2.794,2.794,0,0,1,2.42,4.221,2.751,2.751,0,0,1-2.305,1.391c-.14.011-.281.007-.422.007Z" transform="translate(-178.461 -343.368)" fill="#cad1ce"/>
    <path id="Trazado_57" data-name="Trazado 57" d="M189.81,438.617v-5.608h1.457c1.39,0,2.781-.02,4.17.008a2.8,2.8,0,0,1,1.194,5.325,2.355,2.355,0,0,1-.94.263C193.745,438.628,191.8,438.617,189.81,438.617Z" transform="translate(-178.461 -406.813)" fill="#cad1ce"/>
    <path id="Trazado_58" data-name="Trazado 58" d="M343.891,411.928H336.05a4.089,4.089,0,0,1,3.779-2.788A4.165,4.165,0,0,1,343.891,411.928Z" transform="translate(-307.518 -385.753)" fill="#cad1ce"/>
  </g>
</svg>
