<svg xmlns="http://www.w3.org/2000/svg" width="429" height="98" viewBox="0 0 429 98">
  <g id="buttonVolverAlHome" transform="translate(-1290 -881)">
    <g id="Rectángulo_8" data-name="Rectángulo 8" transform="translate(1290 881)" fill="#eaeae2" stroke="#707070" stroke-width="1">
      <rect width="429" height="98" rx="10" stroke="none"/>
      <rect x="0.5" y="0.5" width="428" height="97" rx="9.5" fill="none"/>
    </g>
    <g id="Grupo_6" data-name="Grupo 6" transform="translate(1380.68 902)">
      <text id="VOLVER_AL_HOME" data-name="VOLVER AL HOME" transform="translate(0.32 37)" fill="#272525" font-size="25" font-family="Poppins-Regular, Poppins"><tspan x="0" y="0">VOLVER AL HOME</tspan></text>
      <g id="arrows" transform="translate(222.618 28.496) rotate(-45)">
        <g id="Grupo_4" data-name="Grupo 4">
          <path id="Trazado_8" data-name="Trazado 8" d="M15.279,2.218a1.614,1.614,0,0,0-.273.023,1.668,1.668,0,0,0-1.338,1.676V10.2a3.223,3.223,0,0,0,.153.975l.169.532L2.8.516A1.668,1.668,0,0,0,.66.283,1.612,1.612,0,0,0,.45,2.7L11.693,13.975l-.355-.129a3.224,3.224,0,0,0-1.1-.169H3.932a1.668,1.668,0,0,0-1.676,1.338A1.612,1.612,0,0,0,3.867,16.9H15.279a1.612,1.612,0,0,0,1.612-1.612V3.829A1.612,1.612,0,0,0,15.279,2.218Z" fill="#272525"/>
        </g>
      </g>
    </g>
  </g>
</svg>
