<svg xmlns="http://www.w3.org/2000/svg" width="48.018" height="48.037" viewBox="0 0 48.018 48.037">
  <path id="facebook-logo" d="M253.359,297.933v31.895a1.691,1.691,0,0,0-.09.256,8.957,8.957,0,0,1-6.8,7.546c-.389.1-.781.176-1.174.266H213.409l-.349-.1a15.59,15.59,0,0,1-2.406-.723,8.735,8.735,0,0,1-5.3-8.358c-.034-9.884,0-19.768,0-29.671v-.618a8.908,8.908,0,0,1,7.385-8.383,24.769,24.769,0,0,1,3.923-.17q13.754-.022,27.512,0a8.972,8.972,0,0,1,8.939,6.981C253.211,297.213,253.279,297.577,253.359,297.933Zm-22.239,34.39h7.53v-16.59h4.485c.2-1.872.4-3.707.618-5.618h-5.109v-3.058c0-.309.034-.593.059-.89.071-.834.426-1.3,1.26-1.368,1.211-.1,2.431-.08,3.648-.108h.544v-5.523a.77.77,0,0,0-.158-.043c-2.233.015-4.466,0-6.7.071a6.653,6.653,0,0,0-3.614,1.149,5.9,5.9,0,0,0-2.437,4.7c-.117,1.523-.077,3.058-.105,4.587v.528h-2.885v5.6h2.879Z" transform="translate(-205.341 -289.858)" fill="#cad1ce"/>
</svg>
