<svg id="heart" xmlns="http://www.w3.org/2000/svg" width="51.235" height="47.467" viewBox="0 0 51.235 47.467">
  <path id="Trazado_52" data-name="Trazado 52" d="M144.706,130.946c-3.748-6.121-8.989-7.439-12.726-7.468a16.7,16.7,0,0,0-9.045,2.618l-1.519.951L119.9,126.1a16.735,16.735,0,0,0-9.052-2.622c-3.737.028-8.978,1.346-12.726,7.468a15.635,15.635,0,0,0-.229,16.036c2.166,3.961,5.469,7.069,8.664,10.075.552.518,14.855,13.887,14.855,13.887s14.3-13.368,14.855-13.887c3.194-3.006,6.5-6.115,8.664-10.075a15.637,15.637,0,0,0-.229-16.036Zm-3.98,13.734c-1.8,3.292-4.822,6.135-7.743,8.884-.536.5-10.16,9.43-11.567,10.75-1.407-1.32-11.031-10.246-11.567-10.751-2.921-2.749-5.943-5.592-7.743-8.884a10.953,10.953,0,0,1,.111-11.229,9.844,9.844,0,0,1,8.671-5.175h.084a11.953,11.953,0,0,1,6.378,1.886l4.066,2.547,4.072-2.55a11.946,11.946,0,0,1,6.372-1.883h.085a9.844,9.844,0,0,1,8.67,5.175,10.951,10.951,0,0,1,.111,11.229Zm0,0" transform="translate(-95.798 -123.478)" fill="#ecdfdb"/>
</svg>
