<svg xmlns="http://www.w3.org/2000/svg" width="48.044" height="48.037" viewBox="0 0 48.044 48.037">
  <g id="instagram" transform="translate(0 -0.778)">
    <path id="Trazado_60" data-name="Trazado 60" d="M93,572a15.369,15.369,0,0,0,.664,2.17,6.839,6.839,0,0,0,5.359,4.033,1.806,1.806,0,0,1,.264.083H93Z" transform="translate(-93 -529.471)" fill="#cad1ce"/>
    <path id="Trazado_61" data-name="Trazado 61" d="M234.1,346.292a9.852,9.852,0,1,1-9.87-9.832A9.89,9.89,0,0,1,234.1,346.292Z" transform="translate(-200.135 -321.606)" fill="#cad1ce"/>
    <path id="Trazado_62" data-name="Trazado 62" d="M134.758,264.7H99.287a1.817,1.817,0,0,0-.264-.083,6.848,6.848,0,0,1-5.359-4.033A15.4,15.4,0,0,1,93,258.419V222.954a2.617,2.617,0,0,0,.088-.308,7.008,7.008,0,0,1,7.043-5.974q16.888-.014,33.775.012a7.621,7.621,0,0,1,2.343.375,6.961,6.961,0,0,1,4.8,6.836v33.581c0,.156,0,.313-.009.47a6.846,6.846,0,0,1-3.93,6A14.978,14.978,0,0,1,134.758,264.7Zm-17.632-11.448a12.663,12.663,0,1,0-12.676-12.637A12.71,12.71,0,0,0,117.126,253.256ZM135.417,226.5a4.219,4.219,0,1,0-4.184,4.242A4.257,4.257,0,0,0,135.417,226.5Z" transform="translate(-93 -215.89)" fill="#cad1ce"/>
    <path id="Trazado_63" data-name="Trazado 63" d="M407.483,288.569a1.4,1.4,0,1,1-1.383,1.424A1.4,1.4,0,0,1,407.483,288.569Z" transform="translate(-369.311 -279.343)" fill="#cad1ce"/>
  </g>
</svg>
