<svg xmlns="http://www.w3.org/2000/svg" width="124.468" height="107.586" viewBox="0 0 124.468 107.586">
  <g id="logokyaralineal" transform="translate(-9.205 -18.718)">
    <g id="Grupo_7" data-name="Grupo 7" transform="translate(18.855 19.212)">
      <path id="Trazado_9" data-name="Trazado 9" d="M103.894,33.39s-18.721-5.547-36.2-5.547c-15.131,0-37.834,5.547-37.834,5.547a29.776,29.776,0,0,0-4.285-7.171c-3.527-4.22-7.954-7.539-8.991-6.935-.885.516-1.313,6.313-.9,10.982.429,4.827,1.245,11.3,1.245,11.3S22.213,75.077,26.8,85.305C39.338,113.3,67.7,124.02,67.7,124.02s29.74-12.6,40.851-38.746C113.042,74.7,118.8,40.567,118.8,40.567s1.226-6.857,1.324-9.437c.1-2.723.638-11.2-.545-11.762-1.619-.763-7.315,4.377-9.327,6.544C108.152,28.177,103.894,33.39,103.894,33.39Z" transform="translate(-15.531 -19.212)" fill="none" stroke="#272525" stroke-linecap="round" stroke-miterlimit="10" stroke-width="1"/>
      <path id="Trazado_10" data-name="Trazado 10" d="M21.559,64.019c18.073-45.161,41.864,20.254,41.864,41.64" transform="translate(-12.363 -3.841)" fill="none" stroke="#272525" stroke-linecap="round" stroke-miterlimit="10" stroke-width="1"/>
      <path id="Trazado_11" data-name="Trazado 11" d="M92.466,62.1c-17.49-42.906-41.559,24.445-41.559,45.83" transform="translate(3.06 -4.038)" fill="none" stroke="#272525" stroke-linecap="round" stroke-miterlimit="10" stroke-width="1"/>
    </g>
    <path id="Trazado_12" data-name="Trazado 12" d="M127.222,53.193c-1.956,0-3.539-.5-3.539-1.121s1.583-1.121,3.539-1.121,3.539.5,3.539,1.121-1.583,1.121-3.539,1.121Zm-4.274,14.122c.841-4,2.313-12.614-1.788-15.453s-14.408-3.046-21.235-2.628c-5.152.316-16.294,1.683-18.4,5.676s1.027,15.659,3.153,19.658c2.628,4.941,7.043,7.464,13.665,8.3s14.543-.455,18.536-2.839c3.515-2.095,5.223-8.723,6.064-12.718ZM58.192,74.568c-2.628,4.941-7.043,7.464-13.665,8.3s-14.543-.455-18.536-2.839c-3.513-2.1-5.222-8.726-6.062-12.72S17.615,54.7,21.714,51.861s14.408-3.046,21.235-2.628c5.152.316,16.294,1.683,18.4,5.676S60.318,70.57,58.192,74.568Zm-46.079-22.5c0,.619,1.585,1.121,3.539,1.121s3.539-.5,3.539-1.121-1.583-1.121-3.539-1.121-3.539.5-3.539,1.121Zm70.994-3.785c-3.666,1.208-7.989,2.926-11.669,2.926s-8-1.716-11.669-2.926c-9.882-3.258-34.8-5.361-50.564-.316L9.678,56.7a3.269,3.269,0,0,1,3.811,2.523c.946,3.153,3.144,16.155,7.161,21.235,4.99,6.308,15.734,6.549,23,6.238,9.783-.421,16.189-4.766,18.922-12.125S66.847,60.9,68.6,58.9a4.067,4.067,0,0,1,5.681,0c1.75,2,3.292,8.3,6.026,15.664s9.139,11.7,18.922,12.125c7.266.313,18.01.07,23-6.238,4.018-5.08,6.215-18.082,7.162-21.235A3.271,3.271,0,0,1,133.2,56.7l.474-8.726C117.9,42.926,92.987,45.029,83.106,48.287Z" transform="translate(0 13.526)" fill="#272525" fill-rule="evenodd"/>
    <path id="Trazado_13" data-name="Trazado 13" d="M46.41,86.924c.587-2.143,2.9-2.546,5.083-2.546s4.772,0,5.083,2.546c.22,1.8-3.319,5.144-5.135,5.135C49.644,92.05,45.934,88.657,46.41,86.924Z" transform="translate(19.529 34.244)" fill="#272525" fill-rule="evenodd"/>
    <ellipse id="Elipse_2" data-name="Elipse 2" cx="3.286" cy="4.564" rx="3.286" ry="4.564" transform="matrix(0.96, 0.28, -0.28, 0.96, 99.956, 71.986)" fill="#272525"/>
    <path id="Trazado_14" data-name="Trazado 14" d="M69.9,55.888c.326-1.121.235-2.133-.206-2.261" transform="translate(31.788 18.085)" fill="none" stroke="#272525" stroke-linecap="round" stroke-miterlimit="10" stroke-width="0.5"/>
    <path id="Trazado_15" data-name="Trazado 15" d="M71.411,56.429c.847-1.114,1.178-2.284.741-2.618" transform="translate(32.689 18.181)" fill="none" stroke="#272525" stroke-linecap="round" stroke-miterlimit="10" stroke-width="0.5"/>
    <path id="Trazado_16" data-name="Trazado 16" d="M70.736,56.134c.535-1.205.586-2.352.111-2.561" transform="translate(32.334 18.056)" fill="none" stroke="#272525" stroke-linecap="round" stroke-miterlimit="10" stroke-width="0.5"/>
    <ellipse id="Elipse_3" data-name="Elipse 3" cx="3.286" cy="4.564" rx="3.286" ry="4.564" transform="matrix(-0.96, 0.28, -0.28, -0.96, 46.765, 80.61)" fill="#272525"/>
    <path id="Trazado_17" data-name="Trazado 17" d="M31.086,55.791c-.326-1.121-.235-2.133.206-2.261" transform="translate(11.396 18.034)" fill="none" stroke="#272525" stroke-linecap="round" stroke-miterlimit="10" stroke-width="0.5"/>
    <path id="Trazado_18" data-name="Trazado 18" d="M29.762,56.331c-.847-1.114-1.178-2.284-.741-2.618" transform="translate(10.312 18.13)" fill="none" stroke="#272525" stroke-linecap="round" stroke-miterlimit="10" stroke-width="0.5"/>
    <path id="Trazado_19" data-name="Trazado 19" d="M30.265,56.037c-.535-1.205-.586-2.352-.111-2.561" transform="translate(10.838 18.005)" fill="none" stroke="#272525" stroke-linecap="round" stroke-miterlimit="10" stroke-width="0.5"/>
    <g id="Grupo_12" data-name="Grupo 12" transform="translate(45.735 31.013)">
      <g id="Grupo_9" data-name="Grupo 9" transform="translate(0 4.323)">
        <g id="Grupo_8" data-name="Grupo 8">
          <line id="Línea_1" data-name="Línea 1" x2="0.975" y2="2.891" fill="none" stroke="#272525" stroke-linecap="round" stroke-miterlimit="10" stroke-width="1"/>
          <line id="Línea_2" data-name="Línea 2" x2="19.2" y2="56.948" transform="translate(2.996 8.886)" fill="none" stroke="#272525" stroke-linecap="round" stroke-miterlimit="10" stroke-width="1" stroke-dasharray="4.147 4.147"/>
          <line id="Línea_3" data-name="Línea 3" x2="0.975" y2="2.891" transform="translate(23.207 68.832)" fill="none" stroke="#272525" stroke-linecap="round" stroke-miterlimit="10" stroke-width="1"/>
        </g>
      </g>
      <g id="Grupo_11" data-name="Grupo 11" transform="translate(27.087 5.379)">
        <g id="Grupo_10" data-name="Grupo 10">
          <line id="Línea_4" data-name="Línea 4" x1="0.976" y2="2.891" transform="translate(22.911)" fill="none" stroke="#272525" stroke-linecap="round" stroke-miterlimit="10" stroke-width="1"/>
          <line id="Línea_5" data-name="Línea 5" x1="18.944" y2="56.039" transform="translate(1.974 8.788)" fill="none" stroke="#272525" stroke-linecap="round" stroke-miterlimit="10" stroke-width="1" stroke-dasharray="4.082 4.082"/>
          <line id="Línea_6" data-name="Línea 6" x1="0.976" y2="2.891" transform="translate(0 67.776)" fill="none" stroke="#272525" stroke-linecap="round" stroke-miterlimit="10" stroke-width="1"/>
        </g>
      </g>
      <line id="Línea_7" data-name="Línea 7" x2="17.636" y2="63.642" transform="translate(7.652 2.801)" fill="none" stroke="#272525" stroke-linecap="round" stroke-miterlimit="10" stroke-width="1" stroke-dasharray="4"/>
      <line id="Línea_8" data-name="Línea 8" x1="17.636" y2="63.641" transform="translate(25.288 3.419)" fill="none" stroke="#272525" stroke-linecap="round" stroke-miterlimit="10" stroke-width="1" stroke-dasharray="4"/>
      <line id="Línea_9" data-name="Línea 9" x2="10.375" y2="42.593" transform="translate(14.913 1.004)" fill="none" stroke="#272525" stroke-linecap="round" stroke-miterlimit="10" stroke-width="1" stroke-dasharray="4"/>
      <line id="Línea_10" data-name="Línea 10" x1="10.375" y2="42.593" transform="translate(25.703 1.619)" fill="none" stroke="#272525" stroke-linecap="round" stroke-miterlimit="10" stroke-width="1" stroke-dasharray="4"/>
      <line id="Línea_11" data-name="Línea 11" x2="3.112" y2="19.09" transform="translate(22.176)" fill="none" stroke="#272525" stroke-linecap="round" stroke-miterlimit="10" stroke-width="1" stroke-dasharray="4"/>
      <line id="Línea_12" data-name="Línea 12" x1="3.112" y2="19.09" transform="translate(25.531)" fill="none" stroke="#272525" stroke-linecap="round" stroke-miterlimit="10" stroke-width="1" stroke-dasharray="4"/>
    </g>
    <g id="Grupo_13" data-name="Grupo 13" transform="translate(36.579 86.241)">
      <ellipse id="Elipse_4" data-name="Elipse 4" cx="3.873" cy="3.472" rx="3.873" ry="3.472" fill="none" stroke="#272525" stroke-linecap="round" stroke-miterlimit="10" stroke-width="0.5"/>
      <ellipse id="Elipse_5" data-name="Elipse 5" cx="3.873" cy="3.472" rx="3.873" ry="3.472" transform="translate(61.433 0.267)" fill="none" stroke="#272525" stroke-linecap="round" stroke-miterlimit="10" stroke-width="0.5"/>
    </g>
  </g>
</svg>
