<svg xmlns="http://www.w3.org/2000/svg" width="187.001" height="54.479" viewBox="0 0 187.001 54.479">
  <g id="logoKyaradg" transform="translate(-7.077 -25.008)">
    <g id="Grupo_1" data-name="Grupo 1">
      <path id="Trazado_1" data-name="Trazado 1" d="M83.228,75.066c-4.718,2.434-9.444,4.421-13.964,4.421-8.195,0-15.641-3.36-19.118-11.9L42.989,46.8c-1.291-3.129-6.457-.745-10.43,2.384l-.8.646V66.573H26.8V32.4c-11.374.05-16.59,7.55-16.59,13.609,0,4.172,2.334,6.556,4.917,6.556,2.235,0,4.47-4.073,4.47-7.947l3.775,1.142c0,4.818-3.924,7.351-8,7.351-4.619,0-8.3-3.08-8.3-8,0-6.507,6.159-13.361,19.719-13.411h4.967V49.037L43.286,39.5c2.434-2.086,5.464-4.818,6.656-7.8h3.477L36.582,45.761c4.718-2.583,9.735-3.527,11.424.6l6.419,21.058C58.4,75.859,64.6,78.99,69.463,78.99c3.775,0,7.9-2.483,12.914-6.9Z" fill="#d5bba7"/>
    </g>
    <path id="Trazado_2" data-name="Trazado 2" d="M59.883,69.336l.892-2.649c3.136,2.062,5.518,3.424,7.666,3.424,5.755,0,8.891-4.424,8.891-10.995V53.7H77.2c-1.89,5.24-5.584,7.645-8.719,7.645-4.467,0-8.5-4.51-8.5-11.6V35.794h4.295V50.7c0,6.357,2.491,9.363,5.412,9.363,2.878,0,6.357-3.049,7.645-8.633V35.794h4.295v20.23c0,9.149-6.528,15.076-15.634,15.076C63.974,71.1,62.116,69.98,59.883,69.336Z" fill="#d5bba7"/>
    <path id="Trazado_3" data-name="Trazado 3" d="M85.666,53.7c0-7.474,8.418-10.91,17.18-12.928,0-3.565-1.89-5.24-4.639-5.24-3.136,0-6.743,2.018-9.406,5.111l-.859-3.307a25.153,25.153,0,0,1,10.137-2.319c4.982,0,9.063,2.019,9.063,7.645V60.62h-4.295V56.8c-2.448,2.663-5.841,4.467-9.063,4.467C88.715,61.264,85.666,58.171,85.666,53.7Zm17.18,2.492V41.378c-9.664,2.1-12.885,6.228-12.885,11.683,0,4.6,2.448,6.829,5.5,6.829C97.993,59.889,100.956,58.257,102.846,56.2Z" fill="#d5bba7"/>
    <path id="Trazado_4" data-name="Trazado 4" d="M112.468,60.62V35.794h4.295V48.207h.043c2.277-9.191,8.376-25.814,22.85-22.85l-.73,3.221c-14.517-4.338-19.5,12.155-22.163,21.347V60.62Z" fill="#d5bba7"/>
    <path id="Trazado_5" data-name="Trazado 5" d="M124.367,53.7c0-7.474,8.418-10.91,17.18-12.928,0-3.565-1.89-5.24-4.639-5.24-3.136,0-6.743,2.018-9.406,5.111l-.859-3.307a25.157,25.157,0,0,1,10.137-2.319c4.983,0,9.063,2.019,9.063,7.645V60.62h-4.295V56.8c-2.449,2.663-5.841,4.467-9.063,4.467C127.416,61.264,124.367,58.171,124.367,53.7Zm17.18,2.492V41.378c-9.664,2.1-12.886,6.228-12.886,11.683,0,4.6,2.449,6.829,5.5,6.829C136.694,59.889,139.657,58.257,141.547,56.2Z" fill="#d5bba7"/>
    <path id="Trazado_6" data-name="Trazado 6" d="M150.267,48.937c0-8.59,5.283-13.873,12.586-13.873a17.54,17.54,0,0,1,4.768.687V30.468h1.717V60.62h-1.717v-5.8c-1.074,4.295-4.3,6.357-7.688,6.357C155.249,61.178,150.267,57.226,150.267,48.937Zm17.353,2.534V36.18a15.806,15.806,0,0,0-4.511-.687c-6.743,0-11.124,5.154-11.124,13.444,0,7.989,4.338,11.726,8.462,11.726C164.141,60.662,167.62,57.7,167.62,51.471Z" fill="#514e4d"/>
    <path id="Trazado_7" data-name="Trazado 7" d="M174.621,70.369V68.651a16.232,16.232,0,0,0,7.173,1.933c6.7,0,10.566-5.97,10.566-14.217v-1.89h-.129c-1.5,4.467-4.681,6.958-7.988,6.958-4.6,0-9.235-3.994-9.235-13.143,0-7.388,3.995-13.272,9.75-13.272a12.316,12.316,0,0,1,7.6,3.135V35.793h1.718v20.23c0,9.278-5.669,15.119-13.959,15.119A21.431,21.431,0,0,1,174.621,70.369ZM192.36,50.7V38.586c-2.62-2.019-5.025-2.921-7.044-2.921-5.369,0-8.59,5.97-8.59,12.627,0,8.59,3.651,12.627,7.43,12.627C187.979,60.92,191.974,57.269,192.36,50.7Z" fill="#514e4d"/>
  </g>
</svg>
