<svg xmlns="http://www.w3.org/2000/svg" width="205.326" height="59.818" viewBox="0 0 205.326 59.818">
  <g id="logoletrasblanco" transform="translate(-7.077 -25.008)">
    <g id="Grupo_1" data-name="Grupo 1" transform="translate(7.077 32.359)">
      <path id="Trazado_1" data-name="Trazado 1" d="M90.69,79.315c-5.18,2.673-10.369,4.854-15.332,4.854-9,0-17.174-3.689-20.991-13.071L46.508,48.284c-1.418-3.436-7.09-.818-11.452,2.618l-.873.709V69.99H28.729V32.468c-12.489.055-18.216,8.29-18.216,14.943,0,4.581,2.563,7.2,5.4,7.2,2.454,0,4.908-4.472,4.908-8.726l4.145,1.254c0,5.29-4.309,8.071-8.781,8.071-5.072,0-9.108-3.382-9.108-8.781,0-7.145,6.763-14.67,21.651-14.725h5.454V50.736l12.652-10.47c2.673-2.29,6-5.29,7.308-8.562H57.96L39.473,47.139c5.18-2.836,10.689-3.873,12.544.654l7.048,23.122c4.363,9.271,11.168,12.709,16.512,12.709,4.145,0,8.671-2.726,14.18-7.581Z" transform="translate(-7.077 -31.703)" fill="#fff"/>
    </g>
    <path id="Trazado_2" data-name="Trazado 2" d="M59.883,72.623l.979-2.909c3.443,2.264,6.059,3.76,8.417,3.76,6.319,0,9.762-4.858,9.762-12.072V55.459H78.9c-2.075,5.753-6.131,8.394-9.573,8.394-4.9,0-9.337-4.952-9.337-12.733V35.794h4.716V52.159c0,6.98,2.735,10.281,5.942,10.281,3.16,0,6.98-3.348,8.394-9.479V35.794h4.716V58.006c0,10.046-7.168,16.553-17.166,16.553C64.375,74.56,62.335,73.33,59.883,72.623Z" transform="translate(5.175 1.057)" fill="#fff"/>
    <path id="Trazado_3" data-name="Trazado 3" d="M85.666,55.535c0-8.206,9.243-11.979,18.864-14.195,0-3.914-2.075-5.754-5.094-5.754-3.443,0-7.4,2.216-10.328,5.612l-.943-3.631A27.618,27.618,0,0,1,99.3,35.021c5.47,0,9.951,2.217,9.951,8.394V63.129h-4.716v-4.2c-2.688,2.924-6.413,4.9-9.951,4.9C89.014,63.836,85.666,60.44,85.666,55.535Zm18.864,2.736V42c-10.611,2.311-14.148,6.838-14.148,12.828,0,5.046,2.688,7.5,6.037,7.5C99.2,62.326,102.454,60.534,104.53,58.271Z" transform="translate(7.701 0.981)" fill="#fff"/>
    <path id="Trazado_4" data-name="Trazado 4" d="M112.468,64.11V36.851h4.716V50.48h.047c2.5-10.092,9.2-28.344,25.089-25.089l-.8,3.537c-15.94-4.763-21.411,13.346-24.335,23.439V64.11Z" transform="translate(10.328 0)" fill="#fff"/>
    <path id="Trazado_5" data-name="Trazado 5" d="M124.367,55.535c0-8.206,9.243-11.979,18.864-14.195,0-3.914-2.075-5.754-5.094-5.754-3.443,0-7.4,2.216-10.328,5.612l-.943-3.631A27.623,27.623,0,0,1,138,35.021c5.471,0,9.951,2.217,9.951,8.394V63.129h-4.716v-4.2c-2.689,2.924-6.413,4.9-9.951,4.9C127.715,63.836,124.367,60.44,124.367,55.535Zm18.864,2.736V42c-10.611,2.311-14.149,6.838-14.149,12.828,0,5.046,2.689,7.5,6.037,7.5C137.9,62.326,141.155,60.534,143.231,58.271Z" transform="translate(11.494 0.981)" fill="#fff"/>
    <path id="Trazado_6" data-name="Trazado 6" d="M150.267,50.747c0-9.432,5.8-15.232,13.819-15.232a19.258,19.258,0,0,1,5.235.754v-5.8h1.885V63.575h-1.885V57.209c-1.179,4.716-4.717,6.98-8.441,6.98C155.737,64.187,150.267,59.848,150.267,50.747Zm19.054,2.782V36.74a17.355,17.355,0,0,0-4.953-.754c-7.4,0-12.214,5.659-12.214,14.761,0,8.772,4.763,12.875,9.291,12.875C165.5,63.621,169.321,60.368,169.321,53.529Z" transform="translate(14.032 0.535)" fill="#fff"/>
    <path id="Trazado_7" data-name="Trazado 7" d="M174.621,73.833V71.947a17.823,17.823,0,0,0,7.876,2.122c7.358,0,11.6-6.555,11.6-15.61V56.384h-.142c-1.65,4.9-5.14,7.64-8.771,7.64-5.046,0-10.14-4.385-10.14-14.431,0-8.112,4.386-14.573,10.705-14.573,2.5,0,5.376,1.038,8.347,3.442V35.869h1.886V58.081c0,10.187-6.225,16.6-15.327,16.6A23.531,23.531,0,0,1,174.621,73.833Zm19.477-21.6v-13.3c-2.877-2.217-5.517-3.207-7.734-3.207-5.9,0-9.432,6.555-9.432,13.864,0,9.432,4.009,13.864,8.158,13.864C189.288,63.458,193.675,59.449,194.1,52.234Z" transform="translate(16.419 0.981)" fill="#fff"/>
  </g>
</svg>
