<svg xmlns="http://www.w3.org/2000/svg" width="48.028" height="48.037" viewBox="0 0 48.028 48.037">
  <g id="pinterest" transform="translate(66.285 131.43)">
    <path id="Trazado_64" data-name="Trazado 64" d="M133.672,267.5H107.787a25.668,25.668,0,0,1-2.69-.584,12,12,0,0,1-8.37-11.5q-.034-11.907,0-23.816a11.5,11.5,0,0,1,1.6-6.038,11.858,11.858,0,0,1,10.749-6.086q11.531-.024,23.062,0a14.424,14.424,0,0,1,2.518.184,11.706,11.706,0,0,1,9.213,7.447,23.309,23.309,0,0,1,.876,3.431v25.9q-.087.477-.177.963a11.77,11.77,0,0,1-7.511,9.247A23.135,23.135,0,0,1,133.672,267.5Zm-14.9-19.424a5.136,5.136,0,0,0,4.211,2.064,8.434,8.434,0,0,0,7.223-3.566,13.317,13.317,0,0,0,2.475-8.931,8.535,8.535,0,0,0-1.881-4.863,10.67,10.67,0,0,0-7.4-4.149c-4.164-.512-8.04.266-11.191,3.21a9.666,9.666,0,0,0-2.983,10.263,5.432,5.432,0,0,0,3.01,3.633c.611.282.9.15,1.091-.477.119-.388.222-.78.334-1.171a1.1,1.1,0,0,0-.2-.962,6.98,6.98,0,0,1-.971-1.79,7.754,7.754,0,0,1,2.887-8.067,9.325,9.325,0,0,1,8.46-1.391,5.708,5.708,0,0,1,4.415,4.935,11.589,11.589,0,0,1-1.763,8.154,4.616,4.616,0,0,1-2.962,2.138c-2.319.477-4.314-1.242-3.488-3.652.3-.884.553-1.79.806-2.69a9.831,9.831,0,0,0,.622-3.247,2.292,2.292,0,0,0-2.659-2.285,3.212,3.212,0,0,0-2.637,2.056,6.146,6.146,0,0,0-.107,4.7,1.529,1.529,0,0,1,.047.8c-.591,2.491-1.15,4.989-1.827,7.456a18.915,18.915,0,0,0-.406,7.8,1.519,1.519,0,0,0,.215.428c.1-.06.239-.1.3-.183a16.682,16.682,0,0,0,3.241-5.967C118.007,250.916,118.392,249.517,118.777,248.073Z" transform="translate(-163 -350.89)" fill="#cad1ce"/>
  </g>
</svg>
