<svg xmlns="http://www.w3.org/2000/svg" width="378.598" height="367.883" viewBox="0 0 378.598 367.883">
  <g id="quote" transform="matrix(0.839, 0.545, -0.545, 0.839, 135.713, -78.024)">
    <path id="Trazado_22" data-name="Trazado 22" d="M85.3,27.917c3.506-12.154,14.773-16.214,26.5-12.83a36.876,36.876,0,0,1,11.8,5.957l-1.352,3.672c-3.783-4.979-8.017-8-12.14-9.19-8.191-2.365-16.052,2.154-19.45,13.935C87.1,41.775,92.328,51,101.27,53.581a16.964,16.964,0,0,0,7.809.282l5.147-17.832,5.355,1.546L114.54,55.033a36.423,36.423,0,0,1-14.414-.91C88.508,50.77,81.558,40.876,85.3,27.917Z" transform="translate(134.774 0)" fill="#f5d6c6"/>
    <path id="Trazado_23" data-name="Trazado 23" d="M96.091,48.2l15.9-28.006,4.845,2.75-7.949,14,.049.029c8.457-8.91,17.261-11.666,22.682-5.641l-2.6,3.007c-4.85-6.919-12.819-4.394-21.224,4.545l-6.85,12.066Z" transform="translate(156.656 11.585)" fill="#f5d6c6"/>
    <path id="Trazado_24" data-name="Trazado 24" d="M105.937,40.453c6.134-7.507,17.415-4.046,27.875,1.121,2.924-3.581,2.4-6.816-.359-9.073-3.15-2.574-8.431-3.506-13.644-2.588l1.852-4.029a32.654,32.654,0,0,1,12.086,5.994c5,4.091,7.444,9.467,2.825,15.122L121.832,65.033l-4.317-3.524,3.141-3.84c-4.648.662-9.535-.308-12.773-2.953C102.793,50.55,102.268,44.941,105.937,40.453ZM121.15,57.064l12.166-14.885c-11.435-5.82-18.055-4.325-22.531,1.156-3.775,4.613-3.15,8.868-.086,11.373C113.241,56.787,117.558,57.58,121.15,57.064Z" transform="translate(170.496 22.135)" fill="#f5d6c6"/>
    <path id="Trazado_25" data-name="Trazado 25" d="M108.554,59.418,141.4,33.888l3.415,4.4-3.3,2.562a13.4,13.4,0,0,1,10.211,4.97c4,5.147,3.738,13.25-4.75,19.843-8.4,6.528-18.531,5.378-23.7-1.261a14.6,14.6,0,0,1-2.873-7.147l-8.442,6.562ZM143.5,61.732c7.39-5.74,9.133-12.388,5.92-16.52a11.153,11.153,0,0,0-8.611-3.817L121.028,56.773a12.358,12.358,0,0,0,2.365,6.129C127.6,68.314,136.161,67.441,143.5,61.732Z" transform="translate(179.751 36.966)" fill="#f5d6c6"/>
    <path id="Trazado_26" data-name="Trazado 26" d="M117.784,60.205l35.481-16.471,2.348,5.053-20.066,9.318.048.1c10.665-2.434,18.106.625,20.571,5.932,2.017,4.345.445,9.564-5.167,12.169l-21.179,9.829-2.345-5.053L148.849,71.4c4.345-2.017,5.721-5.541,4.36-8.477-1.783-3.84-9.669-7.061-22.112-2.759l-10.967,5.09Z" transform="translate(196.855 55.211)" fill="#f5d6c6"/>
    <path id="Trazado_27" data-name="Trazado 27" d="M122.413,67.7l31-8.708,1.506,5.364-31,8.708Zm37.239-10.808a3.121,3.121,0,1,1-2.16,3.849A3.115,3.115,0,0,1,159.652,56.891Z" transform="translate(205.433 79.374)" fill="#f5d6c6"/>
    <path id="Trazado_28" data-name="Trazado 28" d="M139.519,63.1c9.344-1.161,16.736,3.643,18.3,16.2a37.428,37.428,0,0,1-.331,10.879l-3.96-.237a18.327,18.327,0,0,0,3.156-11.624c-.893-7.187-7.461-10.8-16.7-9.658-9.952,1.241-15.761,6.9-14.839,14.314.394,3.15,2.505,6.594,6.18,9.952l-3.766,1.312a22.911,22.911,0,0,1-3.361-9.407C122.88,74.216,128.241,64.507,139.519,63.1Z" transform="translate(208.379 90.793)" fill="#f5d6c6"/>
    <path id="Trazado_29" data-name="Trazado 29" d="M143.127,79.948c11.124,2.043,16.132,10.271,14.36,19.915a24.977,24.977,0,0,1-1.937,5.934l6.8,1.247-1.007,5.481-38.474-7.059,1.007-5.484,7.016,1.287c-4.95-2.665-6.762-7.3-5.969-11.632C126.045,83.5,132.382,77.976,143.127,79.948Zm-8.733,21.966,20.334,3.732a18.173,18.173,0,0,0,1.509-4.536c1.429-7.786-3.424-14.057-14.112-16.017-9.646-1.769-15.37,1.94-16.226,6.6C125.2,95.526,127.857,99.865,134.393,101.914Z" transform="translate(206.269 121.567)" fill="#f5d6c6"/>
    <path id="Trazado_30" data-name="Trazado 30" d="M144.017,93.279c9.9,4.334,11.555,14.3,8.34,21.647-2.882,6.585-9.661,11.1-17.923,7.475a16.516,16.516,0,0,1-3.372-2.023l9.806-22.4c-9.07-3.726-16.554-1.772-19.03,3.892-1.541,3.518-.959,8.579,2.32,14.694l-4.04-.491a21.272,21.272,0,0,1,.853-14.037C124.7,93.519,134.22,88.991,144.017,93.279Zm-10.3,22.976a19.272,19.272,0,0,0,3.079,1.712c7.552,3.307,12.945.987,14.822-3.3,2.1-4.8-.522-12.146-10.043-16.371Z" transform="translate(199.71 143.982)" fill="#f5d6c6"/>
    <path id="Trazado_31" data-name="Trazado 31" d="M126.422,100.516l2.613,3.044a22.469,22.469,0,0,0-11.43,7.977c-2.793,3.889-3.281,8-.833,10.034,6.471,4.653,23.048-12.109,29.652-7.361,4.477,3.218,2.029,10.445-2.494,16.734a43.331,43.331,0,0,1-7.361,7.949l-2.807-2.776a28.518,28.518,0,0,0,11.25-8.585c2.568-3.575,3.3-7.167.81-8.956-4.613-3.315-20.922,13.159-29.108,7.275-5.164-3.986-2.956-11.253,1.173-17A34.919,34.919,0,0,1,126.422,100.516Z" transform="translate(189.298 160.435)" fill="#f5d6c6"/>
    <path id="Trazado_32" data-name="Trazado 32" d="M113.787,108.743l23.125,22.42-3.877,4-23.125-22.42ZM141.865,135.5a3.12,3.12,0,1,1-4.414.066A3.115,3.115,0,0,1,141.865,135.5Z" transform="translate(182.264 175.681)" fill="#f5d6c6"/>
    <path id="Trazado_33" data-name="Trazado 33" d="M116.513,107.8l1.692,3.615c-5.024.382-8.574,1.6-10.839,3.318-5.772,4.374-4.9,11.895.519,19.045l2.291,3.019.134-.1c-1.418-5.007.128-9.606,3.506-12.166,4.8-3.632,12.654-3.506,19.889,6.04,6.091,8.037,5.646,17.321-.482,21.966a15.439,15.439,0,0,1-8.945,2.865l1.347,1.777-4.442,3.364-15.852-20.913c-7.27-9.592-5.318-20.58,4.228-27.812A34.056,34.056,0,0,1,116.513,107.8Zm-3.986,32.1L123.7,154.645c3.31-.06,5.8-.83,7.444-2.077,5.153-3.9,3.315-12.231-1.6-18.714-5.758-7.6-12.243-9.88-15.972-7.053C110.512,129.124,109.368,134.257,112.527,139.9Z" transform="translate(165.618 173.934)" fill="#f5d6c6"/>
    <path id="Trazado_34" data-name="Trazado 34" d="M100.71,152.762,90.564,129.889l5.093-2.26,10.211,23.022c1.74,3.923,4.168,4.859,6.459,3.843,3.666-1.626,7.1-7.906,7.641-15.764l-8.114-18.283,5.093-2.26,13.062,29.439-5.1,2.26-4.382-9.88c-1,9.281-5.216,15.173-9.749,17.184C107.269,158.751,103.015,157.955,100.71,152.762Z" transform="translate(146.413 193.184)" fill="#f5d6c6"/>
    <path id="Trazado_35" data-name="Trazado 35" d="M111.606,137.853c1.991,10.625-5.315,17.607-13.2,19.085-7.067,1.327-14.614-1.735-16.277-10.611A16.842,16.842,0,0,1,81.9,142.4l24.046-4.511c-2.029-9.6-7.857-14.682-13.937-13.541-3.78.708-7.635,4.04-10.845,10.2l-1.869-3.621a21.309,21.309,0,0,1,12.086-7.2C100.524,122.015,109.634,127.336,111.606,137.853Zm-24.8,4.422a19.178,19.178,0,0,0,.32,3.509c1.518,8.106,6.477,11.258,11.076,10.4,5.15-.967,9.749-7.273,7.883-17.524Z" transform="translate(125.529 202.863)" fill="#f5d6c6"/>
    <path id="Trazado_36" data-name="Trazado 36" d="M92.915,124.665l-.631,32.183-5.569-.108.314-16.092-.057,0c-3.184,11.858-9.609,18.474-17.241,15.761l.856-3.883c7.558,3.769,13.358-2.245,16.485-14.1l.271-13.863Z" transform="translate(107.807 204.986)" fill="#f5d6c6"/>
    <path id="Trazado_37" data-name="Trazado 37" d="M71.858,131.552l-.205.753L57.792,128.5l.205-.753Z" transform="translate(85.683 210.89)" fill="#f5d6c6"/>
    <path id="Trazado_38" data-name="Trazado 38" d="M77.4,138.8,63.783,161.1l-4.8-2.933,15.042-24.625c4.009-6.562,1.093-11.41-3.09-13.966-4.137-2.528-9.683-2.847-13.692,3.715L42.2,147.912l-4.753-2.9,13.618-22.294c4.819-7.895,12.811-8.365,20.274-3.806C78.851,123.5,82.223,130.91,77.4,138.8Z" transform="translate(47.979 189.13)" fill="#f5d6c6"/>
    <path id="Trazado_39" data-name="Trazado 39" d="M25.035,131.971l24.48-2.671,3.638-24.531,4.186,4.325-3.467,23.59,12.714-1.367a22.368,22.368,0,0,0,9.507-2.836l2.131,2.2-24.477,2.591L50.108,157.88l-4.186-4.325,3.5-23.55-11.37,1.233a31.082,31.082,0,0,0-10.885,2.93Z" transform="translate(24.98 168.317)" fill="#f5d6c6"/>
    <path id="Trazado_40" data-name="Trazado 40" d="M34.994,114.653l-.659.417-7.706-12.131.659-.417Z" transform="translate(27.934 164.153)" fill="#f5d6c6"/>
    <path id="Trazado_41" data-name="Trazado 41" d="M49.627,119.042,25.29,128.515l-2.04-5.241,26.879-10.465c7.161-2.788,7.783-8.405,6-12.973C54.375,95.321,50.158,91.7,43,94.491L16.117,104.953,14.1,99.766l24.337-9.472c8.616-3.355,15.253,1.113,18.425,9.258C60.052,107.752,58.241,115.687,49.627,119.042Z" transform="translate(4.711 139.41)" fill="#f5d6c6"/>
    <path id="Trazado_42" data-name="Trazado 42" d="M52.222,89.186,13.867,96.8l-1.084-5.464,38.355-7.612Z" transform="translate(2.276 129.314)" fill="#f5d6c6"/>
    <path id="Trazado_43" data-name="Trazado 43" d="M50.611,99.019,11.555,96.788l.8-14.02c.631-11.016,7.081-17.455,19.823-16.728C46.646,66.865,51.915,76.266,51.359,86Zm-.516-5.609.282-4.95c.542-9.515-3.273-15.986-18.517-16.853-12.574-.719-18.294,3.641-18.816,13.772l-.337,5.9Z" transform="translate(0 96.444)" fill="#f5d6c6"/>
    <path id="Trazado_44" data-name="Trazado 44" d="M27.919,83.5C17.608,80.255,14.886,70.521,17.292,62.868,19.449,56.012,25.7,50.8,34.316,53.5a16.628,16.628,0,0,1,3.569,1.646L30.547,78.489c9.421,2.728,16.654-.023,18.508-5.92,1.153-3.669.029-8.636-3.892-14.368l4.071.057A21.307,21.307,0,0,1,49.9,72.309C47.107,81.18,38.125,86.709,27.919,83.5Zm7.769-23.961a19.211,19.211,0,0,0-3.247-1.369c-7.869-2.474-12.982.417-14.385,4.879-1.572,5,1.826,12.023,11.749,15.2Z" transform="translate(9.117 71.966)" fill="#f5d6c6"/>
    <path id="Trazado_45" data-name="Trazado 45" d="M45.13,78.323l-2.924-2.748A22.421,22.421,0,0,0,52.711,66.42c2.362-4.166,2.405-8.305-.248-10.063-6.93-3.929-21.61,14.514-28.685,10.5-4.8-2.719-3.136-10.166.682-16.9a43.464,43.464,0,0,1,6.465-8.693l3.09,2.457a28.508,28.508,0,0,0-10.263,9.741c-2.168,3.829-2.508,7.478.157,8.987C28.85,65.25,43.29,47.121,52.06,52.092c5.558,3.409,4.148,10.87.659,17.022A34.853,34.853,0,0,1,45.13,78.323Z" transform="translate(17.188 50.634)" fill="#f5d6c6"/>
    <path id="Trazado_46" data-name="Trazado 46" d="M25.318,40.681a3.12,3.12,0,1,1,4.382-.536A3.114,3.114,0,0,1,25.318,40.681ZM56.1,64.293,30.708,44.467l3.429-4.394L59.527,59.9Z" transform="translate(23.276 39.209)" fill="#f5d6c6"/>
    <path id="Trazado_47" data-name="Trazado 47" d="M56.624,79.49l-2.063-3.412c4.953-.913,8.351-2.505,10.422-4.454,5.275-4.962,3.606-12.343-2.539-18.876l-2.6-2.759-.12.114c1.943,4.827.893,9.567-2.194,12.465-4.382,4.123-12.206,4.833-20.417-3.889-6.91-7.344-7.455-16.622-1.857-21.895a15.465,15.465,0,0,1,8.591-3.8l-1.526-1.621,4.057-3.82,17.983,19.11c8.246,8.765,7.475,19.9-1.25,28.106A34.439,34.439,0,0,1,56.624,79.49Zm.551-32.343L44.5,33.677c-3.284.414-5.681,1.444-7.181,2.856-4.7,4.428-2,12.514,3.578,18.437,6.531,6.939,13.221,8.519,16.631,5.313C60.321,57.649,60.915,52.425,57.174,47.147Z" transform="translate(36.876 25.213)" fill="#f5d6c6"/>
    <path id="Trazado_48" data-name="Trazado 48" d="M68.639,24.928,81.17,46.566l-4.819,2.793L63.737,27.572c-2.148-3.709-4.659-4.38-6.828-3.124-3.469,2.009-6.208,8.616-5.9,16.48l10.02,17.3-4.819,2.79L40.079,33.165,44.9,30.371l5.412,9.35c0-9.333,3.558-15.638,7.846-18.123C61.48,19.675,65.794,20.012,68.639,24.928Z" transform="translate(52.858 12.171)" fill="#f5d6c6"/>
    <path id="Trazado_49" data-name="Trazado 49" d="M54.281,37.219c-3.124-10.345,3.387-18.075,11.064-20.394,6.879-2.08,14.711.154,17.321,8.8a16.642,16.642,0,0,1,.648,3.875L59.9,36.569c3.047,9.324,9.392,13.749,15.31,11.96,3.681-1.11,7.153-4.836,9.681-11.3l2.248,3.4A21.293,21.293,0,0,1,75.9,49.077C67,51.77,57.374,47.459,54.281,37.219Zm24.169-7.07a18.952,18.952,0,0,0-.7-3.455C75.371,18.8,70.1,16.2,65.625,17.552c-5.013,1.515-8.907,8.277-5.946,18.266Z" transform="translate(77.693 4.002)" fill="#f5d6c6"/>
    <path id="Trazado_50" data-name="Trazado 50" d="M68.656,48.265,65.914,16.184l5.552-.476,1.37,16.04.057,0c1.926-12.131,7.624-19.384,15.5-17.484l-.445,3.952C80.04,15.254,74.9,21.845,73.027,33.968l1.181,13.823Z" transform="translate(100.734 0.038)" fill="#f5d6c6"/>
  </g>
</svg>
